<?xml version="1.0" encoding="utf-8"?>
<!-- Generator: Adobe Illustrator 23.0.3, SVG Export Plug-In . SVG Version: 6.00 Build 0)  -->
<svg version="1.1" id="Слой_1" xmlns="http://www.w3.org/2000/svg" xmlns:xlink="http://www.w3.org/1999/xlink" x="0px" y="0px"
	 viewBox="0 0 188 81" style="enable-background:new 0 0 188 81;" xml:space="preserve">
<style type="text/css">
	.st0{fill-rule:evenodd;clip-rule:evenodd;fill:#FFFFFF;}
</style>
<title>логотип БелЛакт</title>
<path class="st0" d="M153.4,2.3c-3.9,1.1-5.6,3.2-7.6,6.1l0.1,0.1c2.9-3.6,6.1-5,8.8-5.4c-4.8,2.9-5.4,5.2-6.4,7.5h0.1
	c3.2-5.1,7.5-8,13.1-7.9c-7.2,2.8-9.7,7.6-9.2,13.6l8.5-1.8c0.6-0.1,0.7-0.7,1-1c0.6-0.8,1.9-0.8,2.6,0c0.2,0.3,0.1,1-0.3,1.1
	c-4,1.5-7.7,2.7-11.7,4.2c0.9,5,4.5,10.3,13.3,10.9c-7.7,1.1-13-2.1-16.6-7.3v0.1c0.8,2.9,3.7,6.1,9,7.7c-5.4-0.3-9.9-3.3-12.4-7
	l-0.1,0.1c1.6,3.6,5,6.3,10.6,8c-8.5-1.3-15.4-7.4-15.1-14.8C141.1,8.5,147,3.5,153.4,2.3 M176,15.9c0,6.6-5.2,11.9-11.7,11.9
	c-5.2,0-9.7-3.5-11.1-8.3l18.9-7.8l0,0c-3.8,0.6-6.6,1.8-7.5,1.1c-3-2-4.2,0.9-4.3,1l-7.6,1.6c0-6.2,5.2-11.3,11.7-11.3
	C170.8,4.1,176,9.4,176,15.9 M158.5,32.3c10.4,0,18.8-7.1,18.8-15.9s-8.4-15.9-18.8-15.9c-10.3,0-18.8,7.1-18.8,15.9
	S148.2,32.3,158.5,32.3 M162.9,14.2c0.3,0,0.5-0.2,0.5-0.5s-0.2-0.5-0.5-0.5s-0.5,0.2-0.5,0.5S162.6,14.2,162.9,14.2 M165.7,67.5
	c-3.5,1.8-3.7,4.6,0.9,5.4c5.2,0.9,11.6-1.8,12.3-6.8c0.4-2.9-5-6.3-14.4-5.4c-12.1,1.1-17.8,4.1-21.7,7.8c-0.5,0.5,0,0.8,0.5,0.3
	c3.8-3.1,8.9-5.6,16.8-5.4C164.9,63.5,168.4,66.1,165.7,67.5 M179.8,67c-1.4,6.2-8.2,8.9-18.4,8.7c-10.6-0.2-18.9-4-26.2-9
	c-3.1-2.2-7-3.7-11.8-3.7c-22.4-0.2-44.9,0-67.3,0c3.3,5.5,9.9,8.2,24.1,6.3c14.8-2,30-2.7,45.2-3.7c2.8-0.2,6.2,0.6,9.8,3
	c9.6,6.5,18.8,13,27.2,12.5c9.5-0.6,16-5.1,18.3-13.6C181.2,65.7,180,66.1,179.8,67 M184.9,35.9c-0.6-0.5-1.8-0.5-3.5-0.5
	c-5.6,0.1-11,0.1-15.4-0.1c-3.4-0.2-5.2,1.2-5.7,3.9c-0.2,1.2-0.4,2.4-0.2,3.5c0.1,0.9,2.4,1.3,3.2-1.3c0.4-1.3,1.7-1.9,3.8-1.7
	c1.2,0.1,2.2,0.8,2.2,2.1c0.1,3.6-0.1,7.1-0.1,10.7c0,1-0.3,2.2-1.6,2.7c-1.4,0.6-2,1-1.2,2.1c0.5,0.6,1.6,1,3,1c3,0.1,6,0,9-0.1
	c1.1-0.1,2.2-0.5,2.7-1.2c0.6-0.9,0.4-1.6-1.4-2.3c-1.1-0.4-1.7-1.6-1.7-2.8c-0.1-3.3-0.1-6.7,0-10c0-1.1,0.3-2.1,1.9-2.2
	c0.6,0,1.2,0,1.7,0.1c0.9,0.1,1.5,0.7,1.7,1.6c0.2,0.9,1.3,1.9,2.3,2.1c0.9,0.2,1.9-0.7,1.7-2.8C187.2,39.2,186.6,37.5,184.9,35.9
	 M133.7,58.7c2.7,0.4,5.5,0.1,8.3,0c0.8,0,1.6-0.3,2.3-0.9c0.6-0.5,0.9-1.2-0.3-1.8s-1.6-1.6-1.7-2.8c0-1.3,0-2.6,0-3.9
	c0-0.5,0-1.1,0.9-1.1c0.6,0,1,0.1,1.6,0.8c2.2,2.8,4.5,5.6,6.5,8.6c0.3,0.4,0.6,0.9,1.8,1c2.5,0.1,4.9-0.2,7.4-0.3
	c0.7,0,1.6,0.1,2-0.6c0.5-0.9,0.2-1.9-0.9-2.1c-1.5-0.4-2.2-0.8-2.6-1.2c-2.8-2.8-5.6-5.5-8.4-8.4c-0.7-0.7-0.7-1.4,0-2.1
	c1.7-1.8,3.3-3.7,5.4-5.5c0.7-0.7,1.7-0.6,2.7-1c1.1-0.4,1.4-1.7-1.3-2c-2.6-0.3-5.2-0.3-7.8,0c-1.7,0.2-1.2,1.1-0.2,1.7
	c0.6,0.3,1.1,0.9,0.3,2.1c-2.2,3.7-3.6,5.2-5.1,6c-2.1,1.2-2.5,0.2-2.5-0.7c0-1.8,0-3.6,0.1-5.4c0.1-0.9,0.5-1.3,1.5-1.7
	c1.3-0.6,0.7-1.8-1.2-2c-3.2-0.4-6.4-0.5-9.6-0.1c-1.8,0.2-2.3,1.6-0.8,2.4c1,0.6,1.4,1.3,1.4,2.3c0.1,4.2,0.3,8.5,0.1,12.7
	c-0.1,1.9-1.1,2.9-2.2,3.5C130.4,56.9,130.6,58.2,133.7,58.7 M112.3,50.7c0.3-1.8,1.5-2.6,3-2.8c0.8-0.1,1.3-0.4,1.7-0.7
	c0.8-0.6,1.4-0.5,1.4,0.5c0.2,1.7,0.3,3.5,0.1,5.2c-0.3,2.2-1.7,3.1-3.2,3c-2.1-0.1-2.8-1.5-3-2.8C112.2,52.3,112.2,51.5,112.3,50.7
	 M110.6,59.2c2,0.2,4.1-0.4,6.1-1.9c1-0.8,2.2-1.1,3-0.2c0.8,0.9,1.5,2.3,3.7,2.2c3-0.1,5.6-1.9,6.7-3.9c0.6-1.1-0.3-0.6-1.4-0.8
	c-1.6-0.3-1.7-2.5-1.7-4.4c-0.1-3.1,0.3-6.2-0.1-9.3c-0.4-3.6-5.1-5.6-9.6-5.7c-4.5-0.1-8.6,2-10.9,4c-2.5,2.1,0.3,5.5,3.4,2.8
	c1.3-1.1,1.7-3.3,3.3-4.1c2.8-1.3,4.8,0,5.1,2.7c0.1,0.8,0.2,1.7,0.1,2.6c-0.2,1.8-1.3,2.6-2.4,2.8c-1.3,0.2-2.7-0.1-4.2,0.1
	c-4.9,0.7-7.4,3.5-7.7,6C103.7,55.3,105.2,58.5,110.6,59.2 M69.3,34.1h3.6c0.6-1.5,1.1-2.9,1.8-4.3c0.4-0.7,1.1-1.2,2,0.2
	c4.7,8.1,9.4,16.3,14,24.5c1,1.7,0,1.7-0.8,2.1c-0.9,0.5-0.8,2,2.3,2.1c2.9,0.1,7.2-0.1,10.8-0.3c1.8-0.1,2-1.7,0.5-2.1
	c-1-0.3-1.3-0.7-1.5-1.1c-6.6-11.4-13.1-23-19.5-34.3c-0.8-1.4-2.1-1.8-3.2-1.7c-2.2,0.2-4.4,0.2-6.6,0.5c-2,0.3-2,0.9-0.5,2
	c1.3,0.9,1.5,2.4,0.9,3.8C71.8,28.4,70.6,31.2,69.3,34.1 M58.1,56.2c-1.4,0.3-1.5,1.2-0.3,2.3c0.7,0.6,2.8,0.9,5.1,0.8
	c1.2-0.1,1.4-0.8,0.8-1.6c-0.3-0.5,0-1.1,0.3-1.7c1.6-3.3,3-6.6,4.6-9.9c0.3-0.7,0.8-0.8,1.2-0.1c1.5,2.8,3.1,5.6,4.5,8.5
	c0.6,1.3-0.2,1.5-0.8,2.1c-1.1,1-0.3,2.2,1.9,2.4c2.6,0.2,5.3,0.2,7.9,0c1.6-0.1,3-0.7,3.3-1.6c0.2-0.6-0.1-1-0.8-1.1
	c-0.5,0-0.8-0.3-1-0.6c-3.7-6.2-7.2-12.3-10.6-18.6C73.6,36,72.5,35,71.6,35c-1.2,0.1-2.7-0.1-3.8,0.3c-1.5,0.6-2.3,1.2-1.4,2.5
	c0.3,0.5,0.6,0.9,0.8,1.5c0.4,1,0.1,2-0.3,3C62.7,51.1,59.8,55.8,58.1,56.2 M42.9,43.9c-0.4-3.7,1.7-6.1,4.4-6.2
	c2.1,0,3.9,2,3.9,5.2c0,0.9-0.5,1.6-1.2,1.6c-1.3,0-2.6-0.3-3.6,0c-0.5,0.2-1,0.3-1.5,0.5C43.5,45.4,43,44.8,42.9,43.9 M57.4,54.1
	c0.5-1.2-0.6-2.5-1.9-1.6c-1.8,1.3-3.9,2.2-6.5,1.9c-3.8-0.5-5.4-2.5-5.6-4.8c-0.1-1.3,1-2.5,2.7-2.6c3.3-0.2,6.6,0.1,10,0.2
	c1.5,0,2.4-0.4,2.3-2c-0.1-6.8-5.1-9.7-10.6-10.1c-6.2-0.4-13,3.8-13.3,12c-0.3,5.4,3.2,11.4,10.8,12C49,59.4,55.5,58.4,57.4,54.1
	 M23.5,51c-0.6,2.9-2.4,4-4.1,4.4c-0.9,0.2-1.8,0.2-2.7,0c-1.7-0.3-1.9-2.5-2.3-4.4v-5.8c0.1-1.2,0.7-2.3,2.3-2.6
	c0.7-0.2,1.5-0.1,2.3,0c2.8,0.4,4.1,2.5,4.6,5C23.9,48.7,23.7,49.9,23.5,51 M25.1,39.6c-2.7-0.4-5.4,0.2-8.1,0.3
	c-2.2-0.2-2.5-1.5-2.6-3V26.5c0.1-1.7,0.9-3,3.1-3.2c1.3,0,2.6,0,3.9,0.1c2.5,0.5,4.6,2.1,6.8,4.4c1.1,1.2,2.6,0.9,3.4-0.8
	c0.3-0.6,0.1-1.5,0-2.3c-0.2-1.4-0.6-2.8-1.7-4.2c-0.6-0.8-1.7-0.8-3-0.6c-1.6,0.3-10.6,0.1-17.4,0c-2.6,0-4.7-0.5-6.3-0.3
	c-3.2,0.6-2.1,2.7-0.7,3c1.6,0.3,2.6,2.4,2.6,4.3v23.6c-0.1,2.7-1.3,4.6-3.5,5.7c-1.2,0.2-1.5,0.7-0.8,1.7c0.1,0.3,0.7,0.6,1.7,0.9
	c7.4-0.1,14.8-0.3,22.5,0c2.9,0.1,9-4,8.4-10.6C33,42.7,29.2,40.2,25.1,39.6"/>
</svg>
